<svg width="24" height="24" viewBox="0 0 24 24" fill="none" xmlns="http://www.w3.org/2000/svg">
<g id="Copyright">
<path id="Vector" d="M12 2.25C10.0716 2.25 8.18657 2.82183 6.58319 3.89317C4.97982 4.96451 3.73013 6.48726 2.99218 8.26884C2.25422 10.0504 2.06114 12.0108 2.43735 13.9021C2.81355 15.7934 3.74215 17.5307 5.10571 18.8943C6.46928 20.2579 8.20656 21.1865 10.0979 21.5627C11.9892 21.9389 13.9496 21.7458 15.7312 21.0078C17.5127 20.2699 19.0355 19.0202 20.1068 17.4168C21.1782 15.8134 21.75 13.9284 21.75 12C21.7473 9.41498 20.7192 6.93661 18.8913 5.10872C17.0634 3.28084 14.585 2.25273 12 2.25ZM12 20.25C10.3683 20.25 8.77326 19.7661 7.41655 18.8596C6.05984 17.9531 5.00242 16.6646 4.378 15.1571C3.75358 13.6496 3.5902 11.9908 3.90853 10.3905C4.22685 8.79016 5.01259 7.32015 6.16637 6.16637C7.32016 5.01259 8.79017 4.22685 10.3905 3.90852C11.9909 3.59019 13.6497 3.75357 15.1571 4.37799C16.6646 5.00242 17.9531 6.05984 18.8596 7.41655C19.7661 8.77325 20.25 10.3683 20.25 12C20.2475 14.1873 19.3775 16.2843 17.8309 17.8309C16.2843 19.3775 14.1873 20.2475 12 20.25ZM9 12C9 12.6296 9.19812 13.2433 9.56628 13.7541C9.93444 14.2649 10.454 14.6469 11.0513 14.8461C11.6487 15.0452 12.2935 15.0513 12.8945 14.8635C13.4955 14.6758 14.0222 14.3037 14.4 13.8C14.5195 13.6409 14.6973 13.5357 14.8943 13.5077C15.0913 13.4796 15.2913 13.531 15.4505 13.6505C15.6096 13.7699 15.7148 13.9477 15.7428 14.1447C15.7708 14.3417 15.7195 14.5418 15.6 14.7009C15.0332 15.4563 14.2431 16.0142 13.3416 16.2956C12.4402 16.577 11.473 16.5676 10.5771 16.2689C9.68126 15.9701 8.90208 15.3971 8.34995 14.631C7.79781 13.8648 7.50071 12.9444 7.50071 12C7.50071 11.0556 7.79781 10.1352 8.34995 9.36904C8.90208 8.60289 9.68126 8.02986 10.5771 7.73111C11.473 7.43236 12.4402 7.42302 13.3416 7.70443C14.2431 7.98583 15.0332 8.54371 15.6 9.29906C15.6592 9.37786 15.7022 9.46753 15.7267 9.56296C15.7512 9.6584 15.7567 9.75772 15.7428 9.85527C15.7289 9.95281 15.696 10.0467 15.6458 10.1315C15.5956 10.2163 15.5293 10.2904 15.4505 10.3495C15.3717 10.4087 15.282 10.4517 15.1866 10.4762C15.0911 10.5007 14.9918 10.5062 14.8943 10.4923C14.7967 10.4784 14.7029 10.4455 14.6181 10.3953C14.5333 10.3452 14.4592 10.2788 14.4 10.2C14.0222 9.69628 13.4955 9.3242 12.8945 9.13646C12.2935 8.94872 11.6487 8.95484 11.0513 9.15395C10.454 9.35306 9.93444 9.73507 9.56628 10.2459C9.19812 10.7567 9 11.3704 9 12Z" fill="white"/>
</g>
</svg>
