<svg width="32" height="32" viewBox="0 0 32 32" fill="none" xmlns="http://www.w3.org/2000/svg">
<g id="entypo-social:facebook">
<path id="Vector" d="M27.1996 1.59961H4.79961C3.03961 1.59961 1.59961 3.03961 1.59961 4.79961V27.1996C1.59961 28.9612 3.03961 30.3996 4.79961 30.3996H15.9996V19.1996H12.7996V15.2396H15.9996V11.9596C15.9996 8.49721 17.9388 6.06521 22.0252 6.06521L24.91 6.06841V10.2364H22.9948C21.4044 10.2364 20.7996 11.43 20.7996 12.5372V15.2412H24.9084L23.9996 19.1996H20.7996V30.3996H27.1996C28.9596 30.3996 30.3996 28.9612 30.3996 27.1996V4.79961C30.3996 3.03961 28.9596 1.59961 27.1996 1.59961Z" fill="white"/>
</g>
</svg>
