<svg width="32" height="32" viewBox="0 0 32 32" fill="none" xmlns="http://www.w3.org/2000/svg">
<g id="fontisto:instagram" clip-path="url(#clip0_2573_2141)">
<path id="Vector" d="M21.3338 15.9997V15.9984C21.3337 14.7646 20.9059 13.5689 20.1231 12.6151C19.3404 11.6613 18.2511 11.0085 17.041 10.7678C15.8308 10.527 14.5747 10.7133 13.4865 11.2949C12.3983 11.8765 11.5454 12.8174 11.0732 13.9573C10.601 15.0972 10.5386 16.3656 10.8966 17.5464C11.2547 18.7271 12.0111 19.7472 13.0369 20.4328C14.0628 21.1184 15.2946 21.4271 16.5225 21.3063C17.7505 21.1855 18.8985 20.6427 19.7711 19.7704C20.2662 19.2918 20.6598 18.7183 20.9283 18.0842C21.1968 17.4501 21.3347 16.7683 21.3338 16.0797L21.3325 15.9957V15.9997H21.3338ZM24.2138 15.9997C24.2074 17.891 23.5458 19.7216 22.3417 21.1801C21.1375 22.6385 19.4652 23.6346 17.6094 23.9989C15.7535 24.3632 13.8287 24.0731 12.1626 23.178C10.4966 22.283 9.19209 20.8383 8.47126 19.0897C7.75042 17.3412 7.65776 15.3969 8.20903 13.5877C8.76031 11.7786 9.92145 10.2163 11.4949 9.16689C13.0683 8.11744 14.9567 7.64563 16.8388 7.83176C18.7209 8.01788 20.4804 8.85044 21.8178 10.1877C22.5773 10.9247 23.1809 11.8068 23.5927 12.7816C24.0045 13.7565 24.2162 14.8041 24.2151 15.8624L24.2138 16.0077V16.0011V15.9997ZM26.4631 7.4584V7.46107C26.4633 7.90528 26.3094 8.3358 26.0277 8.67926C25.746 9.02273 25.3539 9.2579 24.9183 9.34469C24.4826 9.43148 24.0303 9.36453 23.6385 9.15524C23.2467 8.94596 22.9396 8.60729 22.7695 8.19694C22.5994 7.78659 22.5768 7.32995 22.7056 6.90483C22.8345 6.47972 23.1067 6.11243 23.476 5.86554C23.8453 5.61866 24.2888 5.50746 24.7308 5.55089C25.1729 5.59433 25.5863 5.7897 25.9004 6.10374C26.2418 6.4384 26.4538 6.90507 26.4538 7.42107V7.45974V7.4584H26.4631ZM16.0098 2.87174L14.4165 2.86107C13.4511 2.85396 12.7182 2.85396 12.2178 2.86107C11.7173 2.86818 11.0471 2.88907 10.2071 2.92374C9.42712 2.9504 8.68712 3.02774 7.96312 3.1504L8.06045 3.13707C7.49378 3.2304 6.99112 3.36374 6.50978 3.54107L6.56712 3.5224C5.88713 3.79576 5.26875 4.20251 4.74847 4.71866C4.22819 5.23482 3.81654 5.84994 3.53778 6.52774L3.52445 6.56374C3.35331 7.03216 3.22653 7.51561 3.14578 8.00774L3.13912 8.05707C3.02053 8.75767 2.9497 9.46553 2.92712 10.1757L2.92578 10.2037C2.89112 11.0446 2.87023 11.7148 2.86312 12.2144C2.85601 12.714 2.85601 13.4468 2.86312 14.4131C2.87023 15.3793 2.87378 15.9104 2.87378 16.0064C2.87378 16.1024 2.87023 16.6335 2.86312 17.5997C2.85601 18.566 2.85601 19.2988 2.86312 19.7984C2.87023 20.298 2.89112 20.9682 2.92578 21.8091C2.95245 22.5891 3.02978 23.3291 3.15245 24.0531L3.13912 23.9557C3.23245 24.5224 3.36578 25.0251 3.54312 25.5064L3.52445 25.4491C3.7978 26.1291 4.20455 26.7474 4.72071 27.2677C5.23687 27.788 5.85199 28.1996 6.52978 28.4784L6.56578 28.4917C6.98978 28.6504 7.49245 28.7837 8.00978 28.8704L8.05912 28.8771C8.68445 28.9864 9.42445 29.0637 10.1765 29.0891L10.2045 29.0904C11.0453 29.1251 11.7156 29.146 12.2151 29.1531C12.7147 29.1602 13.4476 29.1602 14.4138 29.1531L15.9978 29.1211L17.5911 29.1317C18.5564 29.1388 19.2893 29.1388 19.7898 29.1317C20.2902 29.1246 20.9605 29.1037 21.8005 29.0691C22.5805 29.0424 23.3205 28.9651 24.0445 28.8424L23.9471 28.8557C24.5138 28.7624 25.0164 28.6291 25.4978 28.4517L25.4405 28.4704C26.1204 28.1971 26.7388 27.7903 27.2591 27.2741C27.7794 26.758 28.191 26.1429 28.4698 25.4651L28.4831 25.4291C28.6418 25.0051 28.7751 24.5024 28.8618 23.9851L28.8685 23.9357C28.9778 23.3104 29.0551 22.5704 29.0805 21.8184L29.0818 21.7904C29.1165 20.9495 29.1373 20.2793 29.1445 19.7797C29.1516 19.2802 29.1516 18.5473 29.1445 17.5811C29.1373 16.6148 29.1338 16.0837 29.1338 15.9877C29.1338 15.8917 29.1373 15.3606 29.1445 14.3944C29.1516 13.4282 29.1516 12.6953 29.1445 12.1957C29.1373 11.6962 29.1165 11.026 29.0818 10.1851C29.0551 9.40507 28.9778 8.66507 28.8551 7.94107L28.8685 8.0384C28.7839 7.50974 28.6486 6.99046 28.4645 6.48774L28.4831 6.54507C28.2098 5.86508 27.803 5.24671 27.2869 4.72642C26.7707 4.20614 26.1556 3.79449 25.4778 3.51574L25.4418 3.5024C24.9734 3.33126 24.4899 3.20448 23.9978 3.12374L23.9485 3.11707C23.2483 2.99854 22.5409 2.92771 21.8311 2.90507L21.8031 2.90374C20.9622 2.86907 20.292 2.84818 19.7924 2.84107C19.2929 2.83396 18.56 2.83396 17.5938 2.84107L16.0098 2.87174ZM32.0005 15.9997C32.0005 19.1802 31.9649 21.3815 31.8938 22.6037C31.9568 23.8424 31.7589 25.0804 31.3128 26.2377C30.8668 27.395 30.1826 28.4456 29.3045 29.3215C28.4265 30.1974 27.3742 30.8791 26.2158 31.3223C25.0575 31.7655 23.8189 31.9604 22.5805 31.8944L22.6018 31.8957C21.3796 31.9668 19.1782 32.0024 15.9978 32.0024C12.8173 32.0024 10.616 31.9668 9.39378 31.8957C8.15514 31.9588 6.91708 31.7608 5.75982 31.3148C4.60256 30.8687 3.55193 30.1845 2.67601 29.3065C1.8001 28.4284 1.11844 27.3761 0.675211 26.2178C0.231983 25.0594 0.0370744 23.8209 0.103117 22.5824L0.101784 22.6037C0.0306727 21.3815 -0.00488281 19.1802 -0.00488281 15.9997C-0.00488281 12.8193 0.0306727 10.618 0.101784 9.39574C0.0387591 8.15709 0.236685 6.91903 0.682734 5.76177C1.12878 4.60451 1.81301 3.55388 2.69106 2.67797C3.56911 1.80205 4.62141 1.12039 5.77975 0.677164C6.93809 0.233936 8.17663 0.0390275 9.41512 0.10507L9.39378 0.103737C10.616 0.0326259 12.8173 -0.00292969 15.9978 -0.00292969C19.1782 -0.00292969 21.3796 0.0326259 22.6018 0.103737C23.8404 0.0407122 25.0785 0.238638 26.2357 0.684688C27.393 1.13074 28.4436 1.81496 29.3196 2.69301C30.1955 3.57106 30.8771 4.62336 31.3204 5.7817C31.7636 6.94004 31.9585 8.17859 31.8925 9.41707L31.8938 9.39574C31.9649 10.6171 32.0005 12.8184 32.0005 15.9997Z" fill="white"/>
</g>
<defs>
<clipPath id="clip0_2573_2141">
<rect width="32" height="32" fill="white"/>
</clipPath>
</defs>
</svg>
